<svg viewBox="0 0 360 360" role="img" xmlns="http://www.w3.org/2000/svg">
<title>Tachyread</title>
<desc>A wide-eyed cosmic goose in a starry roundel, halo above its head, beak open while a robotic claw pours a funnel of books and letters into it.</desc>
<defs>
<clipPath id="tr-badge"><circle cx="180" cy="180" r="168"/></clipPath>
</defs>
<circle cx="180" cy="180" r="168" fill="#161035"/>
<g clip-path="url(#tr-badge)">
  <ellipse cx="118" cy="120" rx="132" ry="104" fill="#6d28d9" opacity="0.34"/>
  <ellipse cx="252" cy="158" rx="124" ry="112" fill="#1d4ed8" opacity="0.30"/>
  <ellipse cx="196" cy="278" rx="146" ry="92" fill="#9d174d" opacity="0.24"/>
  <circle cx="180" cy="180" r="168" fill="none" stroke="#0a0a1f" stroke-width="46" opacity="0.5"/>
  <ellipse cx="168" cy="242" rx="142" ry="40" fill="none" stroke="#a855f7" stroke-width="4" opacity="0.4" transform="rotate(-16 168 242)"/>
  <g fill="#ffffff">
    <circle cx="86" cy="96" r="2.2" opacity="0.95"/><circle cx="126" cy="64" r="1.4" opacity="0.8"/>
    <circle cx="58" cy="150" r="1.8" opacity="0.85"/><circle cx="74" cy="120" r="1.1" opacity="0.7"/>
    <circle cx="102" cy="196" r="1.5" opacity="0.8"/><circle cx="58" cy="210" r="1.3" opacity="0.75"/>
    <circle cx="150" cy="48" r="1.6" opacity="0.9"/><circle cx="44" cy="176" r="1.2" opacity="0.7"/>
    <circle cx="96" cy="252" r="1.4" opacity="0.8"/><circle cx="150" cy="302" r="1.5" opacity="0.85"/>
    <circle cx="286" cy="262" r="1.6" opacity="0.8"/><circle cx="308" cy="196" r="1.4" opacity="0.75"/>
    <circle cx="252" cy="306" r="1.4" opacity="0.8"/><circle cx="206" cy="306" r="1.2" opacity="0.7"/>
    <circle cx="118" cy="276" r="1.2" opacity="0.7"/>
  </g>
  <circle cx="120" cy="150" r="1.7" fill="#fde68a" opacity="0.9"/>
  <circle cx="60" cy="250" r="1.5" fill="#a5f3fc" opacity="0.85"/>
  <circle cx="322" cy="158" r="1.4" fill="#fde68a" opacity="0.8"/>
  <path d="M66 129 L68.7 135.3 L75 138 L68.7 140.7 L66 147 L63.3 140.7 L57 138 L63.3 135.3 Z" fill="#fde68a" opacity="0.9"/>
  <path d="M300 250 L302.4 255.6 L308 258 L302.4 260.4 L300 266 L297.6 260.4 L292 258 L297.6 255.6 Z" fill="#fde68a" opacity="0.85"/>
  <path d="M146 300 L148.1 304.9 L153 307 L148.1 309.1 L146 314 L143.9 309.1 L139 307 L143.9 304.9 Z" fill="#a5f3fc" opacity="0.8"/>
</g>

<path d="M92 212 L62 200 L92 188 Z" fill="#ece4ce"/>
<ellipse cx="160" cy="232" rx="80" ry="62" fill="#f5efdd"/>
<ellipse cx="158" cy="256" rx="46" ry="34" fill="#fcd34d" opacity="0.5"/>
<rect x="140" y="248" width="20" height="14" rx="2" fill="#f59e0b" opacity="0.85" transform="rotate(-12 150 255)"/>
<rect x="166" y="256" width="16" height="12" rx="2" fill="#fbbf24" opacity="0.85" transform="rotate(10 174 262)"/>
<path d="M134 234 q50 -16 84 8 q-38 38 -84 18 z" fill="#e7ddc4"/>
<path d="M150 244 q34 -6 60 8" fill="none" stroke="#cbb890" stroke-width="2" opacity="0.7"/>
<path d="M172 210 Q198 128 218 110" fill="none" stroke="#f5efdd" stroke-width="40" stroke-linecap="round"/>
<circle cx="220" cy="104" r="32" fill="#f5efdd"/>
<ellipse cx="216" cy="62" rx="40" ry="11" fill="#fde68a" opacity="0.22"/>
<ellipse cx="216" cy="62" rx="35" ry="9" fill="none" stroke="#fcd34d" stroke-width="4" opacity="0.9"/>
<circle cx="231" cy="95" r="12.5" fill="#ffffff"/>
<circle cx="235" cy="98" r="6.4" fill="#241a3f"/>
<circle cx="237.4" cy="95.2" r="2.1" fill="#ffffff"/>
<path d="M219 79 q13 -6 26 1" fill="none" stroke="#cbb890" stroke-width="3.2" stroke-linecap="round"/>
<path d="M244 92 L292 72 L250 100 Z" fill="#f59e0b"/>
<path d="M247 116 L292 118 L250 122 Z" fill="#d97706"/>

<path d="M278 100 Q274 116 262 124 Q272 112 272 98 Z" fill="#fbbf24"/>
<circle cx="268" cy="118" r="2.4" fill="#fde68a"/><circle cx="276" cy="110" r="1.8" fill="#fde68a"/>

<path d="M252 40 L304 40 L284 86 L284 100 L272 100 L272 86 Z" fill="#cbd5e1"/>
<path d="M288 40 L304 40 L284 86 L284 100 L280 100 L280 86 Z" fill="#64748b" opacity="0.55"/>
<path d="M278 58 l8 5 0 10 -8 5 -8 -5 0 -10 z" fill="#22d3ee" opacity="0.85"/>
<circle cx="278" cy="68" r="2.2" fill="#155e75"/>
<rect x="276" y="6" width="18" height="40" rx="9" fill="#94a3b8" transform="rotate(28 285 26)"/>
<path d="M256 42 q-9 -7 -3 -16" fill="none" stroke="#64748b" stroke-width="6" stroke-linecap="round"/>
<path d="M300 42 q9 -7 3 -16" fill="none" stroke="#64748b" stroke-width="6" stroke-linecap="round"/>
<circle cx="285" cy="26" r="8.5" fill="#22d3ee" opacity="0.25"/>
<circle cx="285" cy="26" r="4.5" fill="#22d3ee"/>

<g stroke="#fde68a" stroke-linecap="round" opacity="0.5">
  <line x1="262" y1="16" x2="268" y2="38" stroke-width="2"/>
  <line x1="288" y1="14" x2="292" y2="36" stroke-width="2"/>
  <line x1="300" y1="20" x2="302" y2="38" stroke-width="1.6"/>
</g>
<g transform="rotate(-18 270 28)"><rect x="258" y="18" width="24" height="17" rx="2.5" fill="#2dd4bf"/><rect x="258" y="18" width="7" height="17" rx="1" fill="#0d9488"/></g>
<g transform="rotate(16 300 16)"><rect x="288" y="6" width="24" height="17" rx="2.5" fill="#fb7185"/><rect x="288" y="6" width="7" height="17" rx="1" fill="#e11d48"/></g>
<g transform="rotate(-8 284 40)"><rect x="272" y="30" width="24" height="17" rx="2.5" fill="#fbbf24"/><rect x="272" y="30" width="7" height="17" rx="1" fill="#d97706"/></g>

<circle cx="180" cy="180" r="167" fill="none" stroke="#fbbf24" stroke-width="4.5" opacity="0.9"/>
<circle cx="180" cy="180" r="160" fill="none" stroke="#22d3ee" stroke-width="1.5" opacity="0.45"/>
</svg>
